<mxfile host="app.diagrams.net" modified="2023-12-11T06:04:44.655Z" agent="Mozilla/5.0 (Windows NT 10.0; Win64; x64) AppleWebKit/537.36 (KHTML, like Gecko) Chrome/119.0.0.0 Safari/537.36" etag="JHLX3PMttVjWECRMWWl0" version="22.1.7" type="device">
  <diagram name="Halaman-1" id="ooA5djit2iVmOgiD4NJv">
    <mxGraphModel dx="2345" dy="721" grid="1" gridSize="10" guides="1" tooltips="1" connect="1" arrows="1" fold="1" page="1" pageScale="1" pageWidth="827" pageHeight="1169" math="0" shadow="0">
      <root>
        <mxCell id="0" />
        <mxCell id="1" parent="0" />
        <mxCell id="CMzRhewSPssoPhNUtYye-1" value="Mahasiswa" style="rounded=0;whiteSpace=wrap;html=1;" vertex="1" parent="1">
          <mxGeometry x="120" y="240" width="120" height="60" as="geometry" />
        </mxCell>
        <mxCell id="CMzRhewSPssoPhNUtYye-2" value="Denda" style="rounded=0;whiteSpace=wrap;html=1;" vertex="1" parent="1">
          <mxGeometry x="120" y="655" width="120" height="60" as="geometry" />
        </mxCell>
        <mxCell id="CMzRhewSPssoPhNUtYye-3" value="Membayar" style="rhombus;whiteSpace=wrap;html=1;" vertex="1" parent="1">
          <mxGeometry x="140" y="440" width="80" height="80" as="geometry" />
        </mxCell>
        <mxCell id="CMzRhewSPssoPhNUtYye-4" value="Pinjam" style="rhombus;whiteSpace=wrap;html=1;" vertex="1" parent="1">
          <mxGeometry x="538" y="230" width="80" height="80" as="geometry" />
        </mxCell>
        <mxCell id="CMzRhewSPssoPhNUtYye-5" value="Buku" style="rounded=0;whiteSpace=wrap;html=1;" vertex="1" parent="1">
          <mxGeometry x="804" y="240" width="120" height="60" as="geometry" />
        </mxCell>
        <mxCell id="CMzRhewSPssoPhNUtYye-10" value="" style="endArrow=none;html=1;rounded=0;exitX=1;exitY=0.5;exitDx=0;exitDy=0;entryX=0;entryY=0.5;entryDx=0;entryDy=0;" edge="1" parent="1" source="CMzRhewSPssoPhNUtYye-1" target="CMzRhewSPssoPhNUtYye-4">
          <mxGeometry width="50" height="50" relative="1" as="geometry">
            <mxPoint x="404" y="270" as="sourcePoint" />
            <mxPoint x="524" y="220" as="targetPoint" />
          </mxGeometry>
        </mxCell>
        <mxCell id="CMzRhewSPssoPhNUtYye-11" value="" style="endArrow=none;html=1;rounded=0;exitX=1;exitY=0.5;exitDx=0;exitDy=0;entryX=0;entryY=0.5;entryDx=0;entryDy=0;" edge="1" parent="1" target="CMzRhewSPssoPhNUtYye-5">
          <mxGeometry width="50" height="50" relative="1" as="geometry">
            <mxPoint x="618" y="269.5" as="sourcePoint" />
            <mxPoint x="712" y="269.5" as="targetPoint" />
          </mxGeometry>
        </mxCell>
        <mxCell id="CMzRhewSPssoPhNUtYye-13" value="" style="endArrow=none;html=1;rounded=0;exitX=0.5;exitY=1;exitDx=0;exitDy=0;entryX=0.5;entryY=0;entryDx=0;entryDy=0;" edge="1" parent="1" target="CMzRhewSPssoPhNUtYye-2">
          <mxGeometry width="50" height="50" relative="1" as="geometry">
            <mxPoint x="179.5" y="520" as="sourcePoint" />
            <mxPoint x="179.5" y="610" as="targetPoint" />
          </mxGeometry>
        </mxCell>
        <mxCell id="CMzRhewSPssoPhNUtYye-14" value="Petugas" style="rounded=0;whiteSpace=wrap;html=1;" vertex="1" parent="1">
          <mxGeometry x="518" y="450" width="120" height="60" as="geometry" />
        </mxCell>
        <mxCell id="CMzRhewSPssoPhNUtYye-15" value="" style="endArrow=none;html=1;rounded=0;exitX=0.5;exitY=1;exitDx=0;exitDy=0;entryX=0.5;entryY=0;entryDx=0;entryDy=0;" edge="1" parent="1" target="CMzRhewSPssoPhNUtYye-14">
          <mxGeometry width="50" height="50" relative="1" as="geometry">
            <mxPoint x="577.5" y="310" as="sourcePoint" />
            <mxPoint x="577.5" y="400" as="targetPoint" />
          </mxGeometry>
        </mxCell>
        <mxCell id="CMzRhewSPssoPhNUtYye-16" value="Nama" style="ellipse;whiteSpace=wrap;html=1;" vertex="1" parent="1">
          <mxGeometry x="20" y="130" width="90" height="40" as="geometry" />
        </mxCell>
        <mxCell id="CMzRhewSPssoPhNUtYye-17" value="&lt;u&gt;NIM&lt;/u&gt;" style="ellipse;whiteSpace=wrap;html=1;" vertex="1" parent="1">
          <mxGeometry x="-40" y="200" width="90" height="40" as="geometry" />
        </mxCell>
        <mxCell id="CMzRhewSPssoPhNUtYye-18" value="Prodi" style="ellipse;whiteSpace=wrap;html=1;" vertex="1" parent="1">
          <mxGeometry x="120" y="130" width="80" height="40" as="geometry" />
        </mxCell>
        <mxCell id="CMzRhewSPssoPhNUtYye-19" value="tgl_lahir" style="ellipse;whiteSpace=wrap;html=1;" vertex="1" parent="1">
          <mxGeometry x="-40" y="270" width="100" height="40" as="geometry" />
        </mxCell>
        <mxCell id="CMzRhewSPssoPhNUtYye-20" value="" style="endArrow=none;html=1;rounded=0;entryX=0;entryY=0.5;entryDx=0;entryDy=0;exitX=1;exitY=0.5;exitDx=0;exitDy=0;" edge="1" parent="1" source="CMzRhewSPssoPhNUtYye-19" target="CMzRhewSPssoPhNUtYye-1">
          <mxGeometry width="50" height="50" relative="1" as="geometry">
            <mxPoint x="70" y="370" as="sourcePoint" />
            <mxPoint x="120" y="320" as="targetPoint" />
          </mxGeometry>
        </mxCell>
        <mxCell id="CMzRhewSPssoPhNUtYye-21" value="" style="endArrow=none;html=1;rounded=0;entryX=0;entryY=0.25;entryDx=0;entryDy=0;exitX=1;exitY=0.5;exitDx=0;exitDy=0;" edge="1" parent="1" source="CMzRhewSPssoPhNUtYye-17" target="CMzRhewSPssoPhNUtYye-1">
          <mxGeometry width="50" height="50" relative="1" as="geometry">
            <mxPoint x="90" y="320" as="sourcePoint" />
            <mxPoint x="130" y="280" as="targetPoint" />
          </mxGeometry>
        </mxCell>
        <mxCell id="CMzRhewSPssoPhNUtYye-22" value="" style="endArrow=none;html=1;rounded=0;entryX=0;entryY=0;entryDx=0;entryDy=0;exitX=0.5;exitY=1;exitDx=0;exitDy=0;" edge="1" parent="1" source="CMzRhewSPssoPhNUtYye-16" target="CMzRhewSPssoPhNUtYye-1">
          <mxGeometry width="50" height="50" relative="1" as="geometry">
            <mxPoint x="90" y="240" as="sourcePoint" />
            <mxPoint x="130" y="280" as="targetPoint" />
          </mxGeometry>
        </mxCell>
        <mxCell id="CMzRhewSPssoPhNUtYye-23" value="" style="endArrow=none;html=1;rounded=0;entryX=0.5;entryY=0;entryDx=0;entryDy=0;exitX=0.5;exitY=1;exitDx=0;exitDy=0;" edge="1" parent="1" source="CMzRhewSPssoPhNUtYye-18" target="CMzRhewSPssoPhNUtYye-1">
          <mxGeometry width="50" height="50" relative="1" as="geometry">
            <mxPoint x="90" y="200" as="sourcePoint" />
            <mxPoint x="130" y="250" as="targetPoint" />
          </mxGeometry>
        </mxCell>
        <mxCell id="CMzRhewSPssoPhNUtYye-24" value="&lt;u&gt;kode_pinjam&lt;/u&gt;" style="ellipse;whiteSpace=wrap;html=1;" vertex="1" parent="1">
          <mxGeometry x="554" y="140" width="100" height="50" as="geometry" />
        </mxCell>
        <mxCell id="CMzRhewSPssoPhNUtYye-25" value="tgl_kembali" style="ellipse;whiteSpace=wrap;html=1;" vertex="1" parent="1">
          <mxGeometry x="454" y="180" width="100" height="50" as="geometry" />
        </mxCell>
        <mxCell id="CMzRhewSPssoPhNUtYye-27" value="" style="endArrow=none;html=1;rounded=0;entryX=0.5;entryY=0;entryDx=0;entryDy=0;exitX=0.5;exitY=1;exitDx=0;exitDy=0;" edge="1" parent="1" source="CMzRhewSPssoPhNUtYye-24" target="CMzRhewSPssoPhNUtYye-4">
          <mxGeometry width="50" height="50" relative="1" as="geometry">
            <mxPoint x="564" y="160" as="sourcePoint" />
            <mxPoint x="584" y="230" as="targetPoint" />
          </mxGeometry>
        </mxCell>
        <mxCell id="CMzRhewSPssoPhNUtYye-28" value="" style="endArrow=none;html=1;rounded=0;entryX=0;entryY=0;entryDx=0;entryDy=0;exitX=1;exitY=1;exitDx=0;exitDy=0;" edge="1" parent="1" source="CMzRhewSPssoPhNUtYye-25" target="CMzRhewSPssoPhNUtYye-4">
          <mxGeometry width="50" height="50" relative="1" as="geometry">
            <mxPoint x="538" y="280" as="sourcePoint" />
            <mxPoint x="492" y="320" as="targetPoint" />
          </mxGeometry>
        </mxCell>
        <mxCell id="CMzRhewSPssoPhNUtYye-29" value="tgl_pinjam" style="ellipse;whiteSpace=wrap;html=1;" vertex="1" parent="1">
          <mxGeometry x="618" y="190" width="100" height="50" as="geometry" />
        </mxCell>
        <mxCell id="CMzRhewSPssoPhNUtYye-31" value="" style="endArrow=none;html=1;rounded=0;entryX=1;entryY=0;entryDx=0;entryDy=0;exitX=0;exitY=1;exitDx=0;exitDy=0;" edge="1" parent="1" source="CMzRhewSPssoPhNUtYye-29" target="CMzRhewSPssoPhNUtYye-4">
          <mxGeometry width="50" height="50" relative="1" as="geometry">
            <mxPoint x="614" y="200" as="sourcePoint" />
            <mxPoint x="608" y="260" as="targetPoint" />
          </mxGeometry>
        </mxCell>
        <mxCell id="CMzRhewSPssoPhNUtYye-32" value="NIM" style="ellipse;whiteSpace=wrap;html=1;fontStyle=4" vertex="1" parent="1">
          <mxGeometry x="400" y="340" width="90" height="40" as="geometry" />
        </mxCell>
        <mxCell id="CMzRhewSPssoPhNUtYye-33" value="&lt;u&gt;kode_buku&lt;/u&gt;" style="ellipse;whiteSpace=wrap;html=1;" vertex="1" parent="1">
          <mxGeometry x="618" y="320" width="90" height="40" as="geometry" />
        </mxCell>
        <mxCell id="CMzRhewSPssoPhNUtYye-34" value="&lt;u&gt;nomor_petugas&lt;/u&gt;" style="ellipse;whiteSpace=wrap;html=1;" vertex="1" parent="1">
          <mxGeometry x="470" y="390" width="94" height="40" as="geometry" />
        </mxCell>
        <mxCell id="CMzRhewSPssoPhNUtYye-35" style="edgeStyle=orthogonalEdgeStyle;rounded=0;orthogonalLoop=1;jettySize=auto;html=1;exitX=0.5;exitY=1;exitDx=0;exitDy=0;" edge="1" parent="1" source="CMzRhewSPssoPhNUtYye-32" target="CMzRhewSPssoPhNUtYye-32">
          <mxGeometry relative="1" as="geometry" />
        </mxCell>
        <mxCell id="CMzRhewSPssoPhNUtYye-37" value="" style="endArrow=none;html=1;rounded=0;entryX=0;entryY=1;entryDx=0;entryDy=0;exitX=1;exitY=0.5;exitDx=0;exitDy=0;" edge="1" parent="1" source="CMzRhewSPssoPhNUtYye-32" target="CMzRhewSPssoPhNUtYye-4">
          <mxGeometry width="50" height="50" relative="1" as="geometry">
            <mxPoint x="549" y="233" as="sourcePoint" />
            <mxPoint x="568" y="260" as="targetPoint" />
          </mxGeometry>
        </mxCell>
        <mxCell id="CMzRhewSPssoPhNUtYye-38" value="" style="endArrow=none;html=1;rounded=0;entryX=0;entryY=1;entryDx=0;entryDy=0;exitX=0.5;exitY=0;exitDx=0;exitDy=0;" edge="1" parent="1" source="CMzRhewSPssoPhNUtYye-34" target="CMzRhewSPssoPhNUtYye-4">
          <mxGeometry width="50" height="50" relative="1" as="geometry">
            <mxPoint x="554" y="320" as="sourcePoint" />
            <mxPoint x="568" y="300" as="targetPoint" />
          </mxGeometry>
        </mxCell>
        <mxCell id="CMzRhewSPssoPhNUtYye-40" value="" style="endArrow=none;html=1;rounded=0;entryX=1;entryY=1;entryDx=0;entryDy=0;exitX=0;exitY=0;exitDx=0;exitDy=0;" edge="1" parent="1" source="CMzRhewSPssoPhNUtYye-33" target="CMzRhewSPssoPhNUtYye-4">
          <mxGeometry width="50" height="50" relative="1" as="geometry">
            <mxPoint x="503" y="360" as="sourcePoint" />
            <mxPoint x="568" y="300" as="targetPoint" />
          </mxGeometry>
        </mxCell>
        <mxCell id="CMzRhewSPssoPhNUtYye-41" value="Judul" style="ellipse;whiteSpace=wrap;html=1;" vertex="1" parent="1">
          <mxGeometry x="744" y="170" width="90" height="40" as="geometry" />
        </mxCell>
        <mxCell id="CMzRhewSPssoPhNUtYye-42" value="" style="endArrow=none;html=1;rounded=0;entryX=0.5;entryY=1;entryDx=0;entryDy=0;exitX=0.25;exitY=0;exitDx=0;exitDy=0;" edge="1" parent="1" source="CMzRhewSPssoPhNUtYye-5" target="CMzRhewSPssoPhNUtYye-41">
          <mxGeometry width="50" height="50" relative="1" as="geometry">
            <mxPoint x="641" y="336" as="sourcePoint" />
            <mxPoint x="608" y="300" as="targetPoint" />
          </mxGeometry>
        </mxCell>
        <mxCell id="CMzRhewSPssoPhNUtYye-43" value="&lt;u&gt;kode_buku&lt;/u&gt;" style="ellipse;whiteSpace=wrap;html=1;" vertex="1" parent="1">
          <mxGeometry x="850" y="150" width="90" height="40" as="geometry" />
        </mxCell>
        <mxCell id="CMzRhewSPssoPhNUtYye-44" value="" style="endArrow=none;html=1;rounded=0;entryX=0.5;entryY=1;entryDx=0;entryDy=0;exitX=0.5;exitY=0;exitDx=0;exitDy=0;" edge="1" parent="1" source="CMzRhewSPssoPhNUtYye-5" target="CMzRhewSPssoPhNUtYye-43">
          <mxGeometry width="50" height="50" relative="1" as="geometry">
            <mxPoint x="844" y="250" as="sourcePoint" />
            <mxPoint x="799" y="220" as="targetPoint" />
          </mxGeometry>
        </mxCell>
        <mxCell id="CMzRhewSPssoPhNUtYye-45" value="Pengarang" style="ellipse;whiteSpace=wrap;html=1;" vertex="1" parent="1">
          <mxGeometry x="950" y="220" width="90" height="40" as="geometry" />
        </mxCell>
        <mxCell id="CMzRhewSPssoPhNUtYye-46" value="" style="endArrow=none;html=1;rounded=0;entryX=0.5;entryY=1;entryDx=0;entryDy=0;exitX=1;exitY=0.5;exitDx=0;exitDy=0;" edge="1" parent="1" source="CMzRhewSPssoPhNUtYye-5" target="CMzRhewSPssoPhNUtYye-45">
          <mxGeometry width="50" height="50" relative="1" as="geometry">
            <mxPoint x="874" y="250" as="sourcePoint" />
            <mxPoint x="899" y="200" as="targetPoint" />
          </mxGeometry>
        </mxCell>
        <mxCell id="CMzRhewSPssoPhNUtYye-47" value="thn_terbit" style="ellipse;whiteSpace=wrap;html=1;" vertex="1" parent="1">
          <mxGeometry x="970" y="290" width="90" height="40" as="geometry" />
        </mxCell>
        <mxCell id="CMzRhewSPssoPhNUtYye-48" value="" style="endArrow=none;html=1;rounded=0;entryX=0;entryY=0.5;entryDx=0;entryDy=0;exitX=1;exitY=1;exitDx=0;exitDy=0;" edge="1" parent="1" source="CMzRhewSPssoPhNUtYye-5" target="CMzRhewSPssoPhNUtYye-47">
          <mxGeometry width="50" height="50" relative="1" as="geometry">
            <mxPoint x="934" y="280" as="sourcePoint" />
            <mxPoint x="989" y="240" as="targetPoint" />
          </mxGeometry>
        </mxCell>
        <mxCell id="CMzRhewSPssoPhNUtYye-49" value="Penerbit" style="ellipse;whiteSpace=wrap;html=1;" vertex="1" parent="1">
          <mxGeometry x="840" y="350" width="90" height="40" as="geometry" />
        </mxCell>
        <mxCell id="CMzRhewSPssoPhNUtYye-50" value="" style="endArrow=none;html=1;rounded=0;entryX=0.5;entryY=0;entryDx=0;entryDy=0;exitX=0.5;exitY=1;exitDx=0;exitDy=0;" edge="1" parent="1" source="CMzRhewSPssoPhNUtYye-5" target="CMzRhewSPssoPhNUtYye-49">
          <mxGeometry width="50" height="50" relative="1" as="geometry">
            <mxPoint x="800" y="310" as="sourcePoint" />
            <mxPoint x="870" y="310" as="targetPoint" />
          </mxGeometry>
        </mxCell>
        <mxCell id="CMzRhewSPssoPhNUtYye-51" value="&lt;u&gt;nomor_petugas&lt;/u&gt;" style="ellipse;whiteSpace=wrap;html=1;" vertex="1" parent="1">
          <mxGeometry x="664" y="410" width="94" height="40" as="geometry" />
        </mxCell>
        <mxCell id="CMzRhewSPssoPhNUtYye-52" value="" style="endArrow=none;html=1;rounded=0;entryX=0;entryY=1;entryDx=0;entryDy=0;exitX=1;exitY=0.5;exitDx=0;exitDy=0;" edge="1" parent="1" source="CMzRhewSPssoPhNUtYye-14" target="CMzRhewSPssoPhNUtYye-51">
          <mxGeometry width="50" height="50" relative="1" as="geometry">
            <mxPoint x="681" y="540" as="sourcePoint" />
            <mxPoint x="748" y="480" as="targetPoint" />
          </mxGeometry>
        </mxCell>
        <mxCell id="CMzRhewSPssoPhNUtYye-53" value="Nama" style="ellipse;whiteSpace=wrap;html=1;" vertex="1" parent="1">
          <mxGeometry x="704" y="480" width="94" height="40" as="geometry" />
        </mxCell>
        <mxCell id="CMzRhewSPssoPhNUtYye-54" value="" style="endArrow=none;html=1;rounded=0;entryX=0;entryY=0.5;entryDx=0;entryDy=0;exitX=1;exitY=0.75;exitDx=0;exitDy=0;" edge="1" parent="1" source="CMzRhewSPssoPhNUtYye-14" target="CMzRhewSPssoPhNUtYye-53">
          <mxGeometry width="50" height="50" relative="1" as="geometry">
            <mxPoint x="648" y="490" as="sourcePoint" />
            <mxPoint x="678" y="454" as="targetPoint" />
          </mxGeometry>
        </mxCell>
        <mxCell id="CMzRhewSPssoPhNUtYye-57" value="Alamat" style="ellipse;whiteSpace=wrap;html=1;" vertex="1" parent="1">
          <mxGeometry x="570" y="570" width="94" height="40" as="geometry" />
        </mxCell>
        <mxCell id="CMzRhewSPssoPhNUtYye-58" value="" style="endArrow=none;html=1;rounded=0;entryX=0.5;entryY=0;entryDx=0;entryDy=0;exitX=0.5;exitY=1;exitDx=0;exitDy=0;" edge="1" parent="1" source="CMzRhewSPssoPhNUtYye-14" target="CMzRhewSPssoPhNUtYye-57">
          <mxGeometry width="50" height="50" relative="1" as="geometry">
            <mxPoint x="618" y="520" as="sourcePoint" />
            <mxPoint x="641" y="575" as="targetPoint" />
          </mxGeometry>
        </mxCell>
        <mxCell id="CMzRhewSPssoPhNUtYye-59" value="tgl_lahir" style="ellipse;whiteSpace=wrap;html=1;" vertex="1" parent="1">
          <mxGeometry x="414" y="550" width="94" height="40" as="geometry" />
        </mxCell>
        <mxCell id="CMzRhewSPssoPhNUtYye-63" value="&lt;u&gt;Kode_Denda&lt;/u&gt;" style="ellipse;whiteSpace=wrap;html=1;" vertex="1" parent="1">
          <mxGeometry x="250" y="420" width="80" height="40" as="geometry" />
        </mxCell>
        <mxCell id="CMzRhewSPssoPhNUtYye-64" value="" style="endArrow=none;html=1;rounded=0;entryX=1;entryY=0;entryDx=0;entryDy=0;exitX=0;exitY=0.5;exitDx=0;exitDy=0;" edge="1" parent="1" source="CMzRhewSPssoPhNUtYye-63" target="CMzRhewSPssoPhNUtYye-3">
          <mxGeometry width="50" height="50" relative="1" as="geometry">
            <mxPoint x="170" y="230" as="sourcePoint" />
            <mxPoint x="190" y="300" as="targetPoint" />
          </mxGeometry>
        </mxCell>
        <mxCell id="CMzRhewSPssoPhNUtYye-67" value="Jumlah_Denda" style="ellipse;whiteSpace=wrap;html=1;" vertex="1" parent="1">
          <mxGeometry x="50" y="390" width="100" height="40" as="geometry" />
        </mxCell>
        <mxCell id="CMzRhewSPssoPhNUtYye-68" value="" style="endArrow=none;html=1;rounded=0;entryX=1;entryY=0.5;entryDx=0;entryDy=0;exitX=0;exitY=0;exitDx=0;exitDy=0;" edge="1" parent="1" source="CMzRhewSPssoPhNUtYye-3" target="CMzRhewSPssoPhNUtYye-67">
          <mxGeometry width="50" height="50" relative="1" as="geometry">
            <mxPoint x="240" y="430" as="sourcePoint" />
            <mxPoint x="210" y="470" as="targetPoint" />
          </mxGeometry>
        </mxCell>
        <mxCell id="CMzRhewSPssoPhNUtYye-69" value="&lt;u&gt;nomor_petugas&lt;/u&gt;" style="ellipse;whiteSpace=wrap;html=1;" vertex="1" parent="1">
          <mxGeometry x="-10" y="450" width="100" height="40" as="geometry" />
        </mxCell>
        <mxCell id="CMzRhewSPssoPhNUtYye-70" value="" style="endArrow=none;html=1;rounded=0;entryX=1;entryY=0.5;entryDx=0;entryDy=0;exitX=0;exitY=0.5;exitDx=0;exitDy=0;" edge="1" parent="1" source="CMzRhewSPssoPhNUtYye-3" target="CMzRhewSPssoPhNUtYye-69">
          <mxGeometry width="50" height="50" relative="1" as="geometry">
            <mxPoint x="170" y="470" as="sourcePoint" />
            <mxPoint x="120" y="460" as="targetPoint" />
          </mxGeometry>
        </mxCell>
        <mxCell id="CMzRhewSPssoPhNUtYye-71" value="&lt;u&gt;Kode_Transaksi&lt;/u&gt;" style="ellipse;whiteSpace=wrap;html=1;" vertex="1" parent="1">
          <mxGeometry x="10" y="520" width="110" height="50" as="geometry" />
        </mxCell>
        <mxCell id="CMzRhewSPssoPhNUtYye-73" value="" style="endArrow=none;html=1;rounded=0;entryX=1;entryY=0.5;entryDx=0;entryDy=0;exitX=0;exitY=0.5;exitDx=0;exitDy=0;" edge="1" parent="1" source="CMzRhewSPssoPhNUtYye-14" target="CMzRhewSPssoPhNUtYye-3">
          <mxGeometry width="50" height="50" relative="1" as="geometry">
            <mxPoint x="270" y="490" as="sourcePoint" />
            <mxPoint x="210" y="460" as="targetPoint" />
          </mxGeometry>
        </mxCell>
        <mxCell id="CMzRhewSPssoPhNUtYye-75" value="" style="endArrow=none;html=1;rounded=0;entryX=1;entryY=0.5;entryDx=0;entryDy=0;exitX=0;exitY=1;exitDx=0;exitDy=0;" edge="1" parent="1" source="CMzRhewSPssoPhNUtYye-3" target="CMzRhewSPssoPhNUtYye-71">
          <mxGeometry width="50" height="50" relative="1" as="geometry">
            <mxPoint x="150" y="490" as="sourcePoint" />
            <mxPoint x="100" y="480" as="targetPoint" />
          </mxGeometry>
        </mxCell>
        <mxCell id="CMzRhewSPssoPhNUtYye-76" value="&lt;u&gt;Kode_Denda&lt;/u&gt;" style="ellipse;whiteSpace=wrap;html=1;" vertex="1" parent="1">
          <mxGeometry y="640" width="80" height="40" as="geometry" />
        </mxCell>
        <mxCell id="CMzRhewSPssoPhNUtYye-77" value="" style="endArrow=none;html=1;rounded=0;exitX=0;exitY=0.25;exitDx=0;exitDy=0;entryX=1;entryY=0.5;entryDx=0;entryDy=0;" edge="1" parent="1" source="CMzRhewSPssoPhNUtYye-2" target="CMzRhewSPssoPhNUtYye-76">
          <mxGeometry width="50" height="50" relative="1" as="geometry">
            <mxPoint x="189.5" y="530" as="sourcePoint" />
            <mxPoint x="190" y="665" as="targetPoint" />
          </mxGeometry>
        </mxCell>
        <mxCell id="CMzRhewSPssoPhNUtYye-78" value="Tarif_Denda" style="ellipse;whiteSpace=wrap;html=1;" vertex="1" parent="1">
          <mxGeometry x="30" y="750" width="80" height="40" as="geometry" />
        </mxCell>
        <mxCell id="CMzRhewSPssoPhNUtYye-79" value="" style="endArrow=none;html=1;rounded=0;exitX=0.25;exitY=1;exitDx=0;exitDy=0;entryX=1;entryY=0.5;entryDx=0;entryDy=0;" edge="1" target="CMzRhewSPssoPhNUtYye-78" parent="1" source="CMzRhewSPssoPhNUtYye-2">
          <mxGeometry width="50" height="50" relative="1" as="geometry">
            <mxPoint x="150" y="780" as="sourcePoint" />
            <mxPoint x="220" y="775" as="targetPoint" />
          </mxGeometry>
        </mxCell>
        <mxCell id="CMzRhewSPssoPhNUtYye-80" value="Jenis_Denda" style="ellipse;whiteSpace=wrap;html=1;" vertex="1" parent="1">
          <mxGeometry x="170" y="760" width="80" height="40" as="geometry" />
        </mxCell>
        <mxCell id="CMzRhewSPssoPhNUtYye-81" value="" style="endArrow=none;html=1;rounded=0;exitX=0.5;exitY=1;exitDx=0;exitDy=0;entryX=0.5;entryY=0;entryDx=0;entryDy=0;" edge="1" parent="1" source="CMzRhewSPssoPhNUtYye-2" target="CMzRhewSPssoPhNUtYye-80">
          <mxGeometry width="50" height="50" relative="1" as="geometry">
            <mxPoint x="160" y="725" as="sourcePoint" />
            <mxPoint x="120" y="780" as="targetPoint" />
          </mxGeometry>
        </mxCell>
        <mxCell id="CMzRhewSPssoPhNUtYye-83" value="" style="endArrow=none;html=1;rounded=0;entryX=1;entryY=0.5;entryDx=0;entryDy=0;exitX=0.25;exitY=1;exitDx=0;exitDy=0;" edge="1" parent="1" source="CMzRhewSPssoPhNUtYye-14" target="CMzRhewSPssoPhNUtYye-59">
          <mxGeometry width="50" height="50" relative="1" as="geometry">
            <mxPoint x="588" y="520" as="sourcePoint" />
            <mxPoint x="627" y="580" as="targetPoint" />
          </mxGeometry>
        </mxCell>
        <mxCell id="CMzRhewSPssoPhNUtYye-85" value="" style="endArrow=none;html=1;rounded=0;exitX=0.5;exitY=0;exitDx=0;exitDy=0;entryX=0;entryY=0.5;entryDx=0;entryDy=0;" edge="1" parent="1" source="CMzRhewSPssoPhNUtYye-3" target="CMzRhewSPssoPhNUtYye-4">
          <mxGeometry width="50" height="50" relative="1" as="geometry">
            <mxPoint x="250" y="280" as="sourcePoint" />
            <mxPoint x="548" y="280" as="targetPoint" />
          </mxGeometry>
        </mxCell>
        <mxCell id="CMzRhewSPssoPhNUtYye-87" value="&lt;u&gt;kode_pinjam&lt;/u&gt;" style="ellipse;whiteSpace=wrap;html=1;" vertex="1" parent="1">
          <mxGeometry x="220" y="530" width="100" height="50" as="geometry" />
        </mxCell>
        <mxCell id="CMzRhewSPssoPhNUtYye-88" value="" style="endArrow=none;html=1;rounded=0;entryX=1;entryY=1;entryDx=0;entryDy=0;exitX=0.5;exitY=0;exitDx=0;exitDy=0;" edge="1" parent="1" source="CMzRhewSPssoPhNUtYye-87" target="CMzRhewSPssoPhNUtYye-3">
          <mxGeometry width="50" height="50" relative="1" as="geometry">
            <mxPoint x="280" y="540" as="sourcePoint" />
            <mxPoint x="210" y="510" as="targetPoint" />
          </mxGeometry>
        </mxCell>
        <mxCell id="CMzRhewSPssoPhNUtYye-89" value="Rak_Buku" style="rounded=0;whiteSpace=wrap;html=1;" vertex="1" parent="1">
          <mxGeometry x="1010" y="430" width="120" height="60" as="geometry" />
        </mxCell>
        <mxCell id="CMzRhewSPssoPhNUtYye-90" value="&lt;u&gt;Kode_Rak&lt;/u&gt;" style="ellipse;whiteSpace=wrap;html=1;" vertex="1" parent="1">
          <mxGeometry x="1060" y="360" width="90" height="40" as="geometry" />
        </mxCell>
        <mxCell id="CMzRhewSPssoPhNUtYye-91" value="" style="endArrow=none;html=1;rounded=0;entryX=0.5;entryY=0;entryDx=0;entryDy=0;exitX=0.5;exitY=1;exitDx=0;exitDy=0;" edge="1" parent="1" source="CMzRhewSPssoPhNUtYye-90" target="CMzRhewSPssoPhNUtYye-89">
          <mxGeometry width="50" height="50" relative="1" as="geometry">
            <mxPoint x="934" y="310" as="sourcePoint" />
            <mxPoint x="980" y="320" as="targetPoint" />
          </mxGeometry>
        </mxCell>
        <mxCell id="CMzRhewSPssoPhNUtYye-92" value="&lt;u&gt;Kode_Rak&lt;/u&gt;" style="ellipse;whiteSpace=wrap;html=1;" vertex="1" parent="1">
          <mxGeometry x="770" y="320" width="90" height="40" as="geometry" />
        </mxCell>
        <mxCell id="CMzRhewSPssoPhNUtYye-93" value="" style="endArrow=none;html=1;rounded=0;entryX=0.25;entryY=1;entryDx=0;entryDy=0;exitX=0.5;exitY=0;exitDx=0;exitDy=0;" edge="1" source="CMzRhewSPssoPhNUtYye-92" parent="1" target="CMzRhewSPssoPhNUtYye-5">
          <mxGeometry width="50" height="50" relative="1" as="geometry">
            <mxPoint x="644" y="270" as="sourcePoint" />
            <mxPoint x="780" y="390" as="targetPoint" />
          </mxGeometry>
        </mxCell>
        <mxCell id="CMzRhewSPssoPhNUtYye-94" value="Jenis_Buku" style="ellipse;whiteSpace=wrap;html=1;" vertex="1" parent="1">
          <mxGeometry x="1160" y="440" width="90" height="40" as="geometry" />
        </mxCell>
        <mxCell id="CMzRhewSPssoPhNUtYye-95" value="" style="endArrow=none;html=1;rounded=0;entryX=1;entryY=0.5;entryDx=0;entryDy=0;exitX=0;exitY=0.5;exitDx=0;exitDy=0;" edge="1" parent="1" source="CMzRhewSPssoPhNUtYye-94" target="CMzRhewSPssoPhNUtYye-89">
          <mxGeometry width="50" height="50" relative="1" as="geometry">
            <mxPoint x="1115" y="410" as="sourcePoint" />
            <mxPoint x="1080" y="440" as="targetPoint" />
          </mxGeometry>
        </mxCell>
        <mxCell id="CMzRhewSPssoPhNUtYye-96" value="" style="endArrow=none;html=1;rounded=0;entryX=0;entryY=0;entryDx=0;entryDy=0;exitX=0.75;exitY=1;exitDx=0;exitDy=0;" edge="1" parent="1" source="CMzRhewSPssoPhNUtYye-5" target="CMzRhewSPssoPhNUtYye-89">
          <mxGeometry width="50" height="50" relative="1" as="geometry">
            <mxPoint x="874" y="310" as="sourcePoint" />
            <mxPoint x="925" y="350" as="targetPoint" />
          </mxGeometry>
        </mxCell>
        <mxCell id="CMzRhewSPssoPhNUtYye-97" value="Lokasi" style="ellipse;whiteSpace=wrap;html=1;" vertex="1" parent="1">
          <mxGeometry x="1080" y="525" width="90" height="40" as="geometry" />
        </mxCell>
        <mxCell id="CMzRhewSPssoPhNUtYye-98" value="" style="endArrow=none;html=1;rounded=0;entryX=0.75;entryY=1;entryDx=0;entryDy=0;exitX=0.5;exitY=0;exitDx=0;exitDy=0;" edge="1" parent="1" source="CMzRhewSPssoPhNUtYye-97" target="CMzRhewSPssoPhNUtYye-89">
          <mxGeometry width="50" height="50" relative="1" as="geometry">
            <mxPoint x="1170" y="470" as="sourcePoint" />
            <mxPoint x="1140" y="470" as="targetPoint" />
          </mxGeometry>
        </mxCell>
      </root>
    </mxGraphModel>
  </diagram>
</mxfile>
